<svg width="40" height="40" viewBox="0 0 40 40" fill="none" xmlns="http://www.w3.org/2000/svg">
<circle cx="20" cy="20" r="20" fill="#F0F8FF"/>
<g clip-path="url(#clip0_2606_550)">
<path fill-rule="evenodd" clip-rule="evenodd" d="M20 7.5C13.3326 7.5 7.70482 12.3505 7.50546 18.6323C7.50185 18.6711 7.5 18.7103 7.5 18.75V24.7024C7.5 26.6406 9.00084 28.3333 11 28.3333H14.375C15.0654 28.3333 15.625 27.7737 15.625 27.0833V18.75C15.625 18.0596 15.0654 17.5 14.375 17.5C12.1716 17.5 10.5286 15.4131 11.9145 13.7001C13.7135 11.4763 16.6287 10 20 10C23.3713 10 26.2865 11.4763 28.0855 13.7001C29.4714 15.4131 27.8284 17.5 25.625 17.5C24.9346 17.5 24.375 18.0596 24.375 18.75V27.0833C24.375 27.7737 24.9346 28.3333 25.625 28.3333H29C29.4551 28.3333 29.8707 28.7239 29.6222 29.1052C29.2546 29.6691 28.6678 30 28.0859 30H22.8125C22.1221 30 21.5625 30.5597 21.5625 31.25C21.5625 31.9404 22.1221 32.5 22.8125 32.5H28.0859C30.6307 32.5 32.5 30.2741 32.5 27.7778V18.75C32.5 18.7103 32.4982 18.6711 32.4945 18.6323C32.2952 12.3505 26.6674 7.5 20 7.5ZM30 21.5625C30 20.6996 29.3004 20 28.4375 20C27.5746 20 26.875 20.6996 26.875 21.5625V23.7083C26.875 24.8819 27.8264 25.8333 29 25.8333C29.4871 25.8333 30 25.3951 30 24.7024V21.5625ZM11.5625 20C10.6996 20 10 20.6996 10 21.5625V24.7024C10 25.3951 10.5129 25.8333 11 25.8333C12.1736 25.8333 13.125 24.8819 13.125 23.7083V21.5625C13.125 20.6996 12.4254 20 11.5625 20Z" fill="#1849A9"/>
</g>
<defs>
<clipPath id="clip0_2606_550">
<rect width="25" height="25" fill="white" transform="translate(7.5 7.5)"/>
</clipPath>
</defs>
</svg>
